<svg xmlns="http://www.w3.org/2000/svg" xmlns:xlink="http://www.w3.org/1999/xlink" width="190" height="62" viewBox="0 0 190 62">
    <defs>
        <linearGradient id="a" x1="61.13%" x2="26.539%" y1="4.839%" y2="71.968%">
            <stop offset="0%" stop-color="#00A0FF"/>
            <stop offset=".657%" stop-color="#00A1FF"/>
            <stop offset="26.01%" stop-color="#00BEFF"/>
            <stop offset="51.22%" stop-color="#00D2FF"/>
            <stop offset="76.04%" stop-color="#00DFFF"/>
            <stop offset="100%" stop-color="#00E3FF"/>
        </linearGradient>
        <linearGradient id="b" x1="107.728%" x2="-130.665%" y1="49.428%" y2="49.428%">
            <stop offset="0%" stop-color="#FFE000"/>
            <stop offset="40.87%" stop-color="#FFBD00"/>
            <stop offset="77.54%" stop-color="#FFA500"/>
            <stop offset="100%" stop-color="#FF9C00"/>
        </linearGradient>
        <linearGradient id="c" x1="86.389%" x2="-49.888%" y1="30.807%" y2="136.106%">
            <stop offset="0%" stop-color="#FF3A44"/>
            <stop offset="100%" stop-color="#C31162"/>
        </linearGradient>
        <linearGradient id="d" x1="-18.579%" x2="42.275%" y1="-12.748%" y2="34.806%">
            <stop offset="0%" stop-color="#32A071"/>
            <stop offset="6.85%" stop-color="#2DA771"/>
            <stop offset="47.62%" stop-color="#15CF74"/>
            <stop offset="80.09%" stop-color="#06E775"/>
            <stop offset="100%" stop-color="#00F076"/>
        </linearGradient>
        <path id="e" d="M0 10.312h93.307V0H0z"/>
    </defs>
    <g fill="none" fill-rule="evenodd">
        <rect width="190" height="62" fill="#0C5077" rx="4"/>
        <g fill-rule="nonzero">
            <path fill="url(#a)" d="M.367 2.945V37.2c0 .93.153 1.705.614 2.17l.154.155 19.21-19.22v-.31L1.135.93c-.46.465-.768 1.085-.768 2.015z" transform="translate(10.621 11.625)"/>
            <path fill="url(#b)" d="M20.345 20.46V19.995l6.25-6.309.204.109 7.53 4.34c2.152 1.24 2.152 3.255 0 4.495l-7.683 4.185-6.301-6.355z" transform="translate(10.621 11.625)"/>
            <path fill="url(#c)" d="M27.005 26.633l-6.66-6.483-19.21 19.375c.769.775 1.844.775 3.227.155l22.433-12.927.21-.12z" transform="translate(10.621 11.625)"/>
            <path fill="url(#d)" d="M26.8 13.795L4.361.775C2.98 0 1.904.155 1.135.93l19.21 19.22 6.454-6.355z" transform="translate(10.621 11.625)"/>
        </g>
        <path fill="#FFF" fill-rule="nonzero" d="M95.602 33.954c-3.363 0-6.025 2.544-6.025 6.077 0 3.392 2.662 6.077 6.025 6.077 3.363 0 6.025-2.544 6.025-6.077 0-3.674-2.662-6.077-6.025-6.077zm0 9.61c-1.822 0-3.363-1.554-3.363-3.674s1.541-3.675 3.363-3.675c1.821 0 3.363 1.414 3.363 3.675 0 2.12-1.542 3.674-3.363 3.674zm-13.031-9.61c-3.363 0-6.025 2.544-6.025 6.077 0 3.392 2.662 6.077 6.025 6.077 3.363 0 6.025-2.544 6.025-6.077 0-3.674-2.662-6.077-6.025-6.077zm0 9.61c-1.822 0-3.363-1.554-3.363-3.674s1.541-3.675 3.363-3.675c1.821 0 3.363 1.414 3.363 3.675 0 2.12-1.542 3.674-3.363 3.674zm-15.554-7.773v2.544h6.026c-.14 1.413-.701 2.544-1.402 3.25-.84.849-2.242 1.838-4.624 1.838-3.783 0-6.585-2.968-6.585-6.784 0-3.815 2.942-6.783 6.585-6.783 1.962 0 3.503.848 4.624 1.837l1.822-1.837c-1.541-1.414-3.503-2.544-6.305-2.544-5.045 0-9.388 4.24-9.388 9.327 0 5.088 4.343 9.328 9.388 9.328 2.802 0 4.764-.848 6.445-2.686 1.681-1.695 2.242-4.098 2.242-5.935 0-.565 0-1.13-.14-1.555h-8.688zm63.614 1.979c-.56-1.413-1.961-3.816-5.044-3.816-3.082 0-5.605 2.403-5.605 6.077 0 3.392 2.523 6.077 5.885 6.077 2.663 0 4.344-1.696 4.905-2.685l-1.962-1.413c-.7.989-1.541 1.695-2.943 1.695-1.4 0-2.242-.565-2.942-1.837l7.987-3.392-.28-.706zm-8.126 1.978c0-2.26 1.821-3.533 3.082-3.533.981 0 1.962.566 2.242 1.272l-5.324 2.261zm-6.586 5.795h2.662V27.877h-2.662v17.666zm-4.204-10.317c-.7-.707-1.821-1.413-3.222-1.413-2.943 0-5.745 2.685-5.745 6.077 0 3.391 2.662 5.935 5.745 5.935 1.4 0 2.522-.706 3.082-1.413h.14v.848c0 2.261-1.26 3.533-3.222 3.533-1.542 0-2.663-1.13-2.943-2.12l-2.242.99c.7 1.554 2.382 3.533 5.325 3.533 3.082 0 5.605-1.838 5.605-6.219v-10.74h-2.523v.989zm-3.082 8.338c-1.822 0-3.363-1.554-3.363-3.674s1.541-3.675 3.363-3.675c1.821 0 3.222 1.555 3.222 3.675s-1.4 3.674-3.222 3.674zm34.189-15.687h-6.306v17.666h2.663V38.9h3.643c2.942 0 5.745-2.12 5.745-5.511 0-3.392-2.803-5.512-5.745-5.512zm.14 8.48h-3.783V30.28h3.783c1.962 0 3.082 1.696 3.082 2.968-.14 1.554-1.26 3.109-3.082 3.109zm16.114-2.544c-1.962 0-3.924.848-4.624 2.685l2.382.99c.56-.99 1.4-1.273 2.382-1.273 1.4 0 2.662.848 2.802 2.261v.142c-.42-.283-1.541-.707-2.662-.707-2.522 0-5.045 1.413-5.045 3.957 0 2.403 2.102 3.957 4.344 3.957 1.822 0 2.662-.848 3.363-1.696h.14v1.414h2.522v-6.784c-.28-3.109-2.662-4.946-5.604-4.946zm-.28 9.751c-.841 0-2.102-.424-2.102-1.554 0-1.414 1.54-1.838 2.802-1.838 1.12 0 1.681.283 2.382.566-.28 1.696-1.682 2.826-3.083 2.826zm14.712-9.327l-2.943 7.631h-.14l-3.082-7.631h-2.803l4.624 10.74-2.662 5.936h2.662l7.146-16.676h-2.802zm-23.54 11.306h2.662V27.877h-2.662v17.666z"/>
        <g transform="translate(58.25 12.4)">
            <path fill="#FFF" d="M1.387 8.764h1.696c1.104 0 1.979-.316 2.624-.949s.967-1.52.967-2.66c0-1.13-.322-2.013-.967-2.65s-1.52-.955-2.624-.955H1.387v7.214zM.16 9.939V.373h2.924c1.469 0 2.645.443 3.526 1.33.881.886 1.32 2.037 1.32 3.453S7.49 7.724 6.61 8.609c-.881.887-2.057 1.33-3.526 1.33H.159z"/>
            <path stroke="#FFF" stroke-width=".2" d="M1.387 8.764h1.696c1.104 0 1.979-.316 2.624-.949s.967-1.52.967-2.66c0-1.13-.322-2.013-.967-2.65s-1.52-.955-2.624-.955H1.387v7.214zM.16 9.939V.373h2.924c1.469 0 2.645.443 3.526 1.33.881.886 1.32 2.037 1.32 3.453S7.49 7.724 6.61 8.609c-.881.887-2.057 1.33-3.526 1.33H.159z"/>
            <mask id="f" fill="#fff">
                <use xlink:href="#e"/>
            </mask>
            <path fill="#FFF" d="M9.655 9.939h1.228V.373H9.655z" mask="url(#f)"/>
            <path stroke="#FFF" stroke-width=".2" d="M9.655 9.939h1.228V.373H9.655z" mask="url(#f)"/>
            <path fill="#FFF" d="M15.769 10.153c-.695 0-1.372-.227-2.035-.681-.665-.455-1.1-1.09-1.304-1.91l1.122-.455c.134.525.406.968.82 1.329.417.36.88.542 1.397.542.533 0 .99-.14 1.368-.421.38-.28.568-.662.568-1.143 0-.535-.188-.946-.568-1.236-.377-.289-.976-.558-1.795-.808-.847-.267-1.487-.613-1.924-1.035-.435-.424-.655-.965-.655-1.623 0-.687.273-1.283.816-1.79C14.123.415 14.83.16 15.702.16c.81 0 1.469.202 1.975.607.509.407.839.85.988 1.33l-1.12.467c-.081-.302-.279-.582-.594-.842-.316-.257-.724-.386-1.222-.386-.472 0-.875.13-1.208.394-.335.263-.502.59-.502.982 0 .356.155.657.46.9.31.246.76.466 1.356.662.472.152.866.299 1.183.442.315.142.637.332.96.568.326.236.57.529.735.881.164.353.247.76.247 1.223 0 .462-.095.877-.287 1.242a2.338 2.338 0 0 1-.761.869 3.789 3.789 0 0 1-2.143.654" mask="url(#f)"/>
            <path stroke="#FFF" stroke-width=".2" d="M15.769 10.153c-.695 0-1.372-.227-2.035-.681-.665-.455-1.1-1.09-1.304-1.91l1.122-.455c.134.525.406.968.82 1.329.417.36.88.542 1.397.542.533 0 .99-.14 1.368-.421.38-.28.568-.662.568-1.143 0-.535-.188-.946-.568-1.236-.377-.289-.976-.558-1.795-.808-.847-.267-1.487-.613-1.924-1.035-.435-.424-.655-.965-.655-1.623 0-.687.273-1.283.816-1.79C14.123.415 14.83.16 15.702.16c.81 0 1.469.202 1.975.607.509.407.839.85.988 1.33l-1.12.467c-.081-.302-.279-.582-.594-.842-.316-.257-.724-.386-1.222-.386-.472 0-.875.13-1.208.394-.335.263-.502.59-.502.982 0 .356.155.657.46.9.31.246.76.466 1.356.662.472.152.866.299 1.183.442.315.142.637.332.96.568.326.236.57.529.735.881.164.353.247.76.247 1.223 0 .462-.095.877-.287 1.242a2.338 2.338 0 0 1-.761.869 3.789 3.789 0 0 1-2.143.654z" mask="url(#f)"/>
            <path fill="#FFF" d="M21.95 4.889h2.058c.516 0 .93-.173 1.241-.52.313-.348.467-.73.467-1.15 0-.419-.154-.802-.467-1.15-.31-.347-.725-.52-1.24-.52H21.95v3.34zm0 5.05h-1.228V.374h3.259c.81 0 1.512.269 2.103.808.593.539.888 1.218.888 2.037 0 .82-.295 1.499-.888 2.036-.59.54-1.294.81-2.103.81h-2.03V9.94z" mask="url(#f)"/>
            <path stroke="#FFF" stroke-width=".2" d="M21.95 4.889h2.058c.516 0 .93-.173 1.241-.52.313-.348.467-.73.467-1.15 0-.419-.154-.802-.467-1.15-.31-.347-.725-.52-1.24-.52H21.95v3.34zm0 5.05h-1.228V.374h3.259c.81 0 1.512.269 2.103.808.593.539.888 1.218.888 2.037 0 .82-.295 1.499-.888 2.036-.59.54-1.294.81-2.103.81h-2.03V9.94z" mask="url(#f)"/>
            <path fill="#FFF" d="M30.236 7.902c.707.717 1.572 1.075 2.597 1.075 1.023 0 1.89-.358 2.597-1.075.708-.717 1.063-1.632 1.063-2.745 0-1.113-.355-2.03-1.063-2.746-.707-.717-1.574-1.076-2.597-1.076-1.025 0-1.89.359-2.597 1.076-.706.716-1.062 1.633-1.062 2.746s.356 2.028 1.062 2.745m6.102.8c-.94.968-2.108 1.451-3.505 1.451-1.398 0-2.566-.483-3.504-1.45-.94-.967-1.409-2.148-1.409-3.546 0-1.398.469-2.581 1.409-3.548C30.267.643 31.435.16 32.833.16c1.39 0 2.554.485 3.5 1.456.942.97 1.414 2.15 1.414 3.54 0 1.399-.47 2.58-1.409 3.546" mask="url(#f)"/>
            <path stroke="#FFF" stroke-width=".2" d="M30.236 7.902c.707.717 1.572 1.075 2.597 1.075 1.023 0 1.89-.358 2.597-1.075.708-.717 1.063-1.632 1.063-2.745 0-1.113-.355-2.03-1.063-2.746-.707-.717-1.574-1.076-2.597-1.076-1.025 0-1.89.359-2.597 1.076-.706.716-1.062 1.633-1.062 2.746s.356 2.028 1.062 2.745zm6.102.8c-.94.968-2.108 1.451-3.505 1.451-1.398 0-2.566-.483-3.504-1.45-.94-.967-1.409-2.148-1.409-3.546 0-1.398.469-2.581 1.409-3.548C30.267.643 31.435.16 32.833.16c1.39 0 2.554.485 3.5 1.456.942.97 1.414 2.15 1.414 3.54 0 1.399-.47 2.58-1.409 3.546z" mask="url(#f)"/>
            <path fill="#FFF" d="M39.471 9.94V.373h1.495l4.646 7.44h.054l-.054-1.843V.374h1.23v9.565H45.56L40.7 2.137h-.055L40.7 3.98V9.94z" mask="url(#f)"/>
            <path stroke="#FFF" stroke-width=".2" d="M39.471 9.94V.373h1.495l4.646 7.44h.054l-.054-1.843V.374h1.23v9.565H45.56L40.7 2.137h-.055L40.7 3.98V9.94z" mask="url(#f)"/>
            <path fill="#FFF" d="M49.032 9.939h1.228V.373h-1.228z" mask="url(#f)"/>
            <path stroke="#FFF" stroke-width=".2" d="M49.032 9.939h1.228V.373h-1.228z" mask="url(#f)"/>
            <path fill="#FFF" d="M53.677 8.764h2.471c.472 0 .854-.166 1.147-.496.295-.328.442-.689.442-1.081s-.152-.75-.454-1.076c-.303-.324-.7-.488-1.19-.488h-2.416v3.14zm0-4.289h2.229c.463 0 .836-.153 1.117-.46.279-.308.419-.645.419-1.01s-.136-.7-.408-1.001c-.271-.303-.628-.454-1.072-.454h-2.285v2.925zM52.448 9.94V.373h3.458c.749 0 1.396.249 1.944.741.548.496.822 1.116.822 1.864 0 .454-.118.856-.355 1.202-.235.35-.55.61-.942.79v.052c.472.161.859.437 1.163.829.301.392.454.847.454 1.363 0 .785-.288 1.433-.862 1.95a2.943 2.943 0 0 1-2.036.775h-3.646z" mask="url(#f)"/>
            <path stroke="#FFF" stroke-width=".2" d="M53.677 8.764h2.471c.472 0 .854-.166 1.147-.496.295-.328.442-.689.442-1.081s-.152-.75-.454-1.076c-.303-.324-.7-.488-1.19-.488h-2.416v3.14zm0-4.289h2.229c.463 0 .836-.153 1.117-.46.279-.308.419-.645.419-1.01s-.136-.7-.408-1.001c-.271-.303-.628-.454-1.072-.454h-2.285v2.925zM52.448 9.94V.373h3.458c.749 0 1.396.249 1.944.741.548.496.822 1.116.822 1.864 0 .454-.118.856-.355 1.202-.235.35-.55.61-.942.79v.052c.472.161.859.437 1.163.829.301.392.454.847.454 1.363 0 .785-.288 1.433-.862 1.95a2.943 2.943 0 0 1-2.036.775h-3.646z" mask="url(#f)"/>
            <path fill="#FFF" d="M60.648 9.94V.373h1.228v8.39h4.139V9.94z" mask="url(#f)"/>
            <path stroke="#FFF" stroke-width=".2" d="M60.648 9.94V.373h1.228v8.39h4.139V9.94z" mask="url(#f)"/>
            <path fill="#FFF" d="M73.147 1.549h-4.354v3.032h3.925v1.15h-3.925v3.032h4.354V9.94h-5.582V.374h5.582z" mask="url(#f)"/>
            <path stroke="#FFF" stroke-width=".2" d="M73.147 1.549h-4.354v3.032h3.925v1.15h-3.925v3.032h4.354V9.94h-5.582V.374h5.582z" mask="url(#f)"/>
            <path fill="#FFF" d="M83.856 1.549h-4.354v3.032h3.925v1.15h-3.925v3.032h4.354V9.94h-5.582V.374h5.582z" mask="url(#f)"/>
            <path stroke="#FFF" stroke-width=".2" d="M83.856 1.549h-4.354v3.032h3.925v1.15h-3.925v3.032h4.354V9.94h-5.582V.374h5.582z" mask="url(#f)"/>
            <path fill="#FFF" d="M85.777 9.94V.373h1.495l4.646 7.44h.055l-.055-1.843V.374h1.23v9.565h-1.282l-4.86-7.802h-.054l.054 1.844V9.94z" mask="url(#f)"/>
            <path stroke="#FFF" stroke-width=".2" d="M85.777 9.94V.373h1.495l4.646 7.44h.055l-.055-1.843V.374h1.23v9.565h-1.282l-4.86-7.802h-.054l.054 1.844V9.94z" mask="url(#f)"/>
        </g>
    </g>
</svg>
