<svg xmlns="http://www.w3.org/2000/svg" width="190" height="62" viewBox="0 0 190 62">
    <g fill="none" fill-rule="evenodd">
        <rect width="190" height="62" fill="#0C5077" rx="4"/>
        <path fill="#FFF" fill-rule="nonzero" d="M68.413 42.858h-7.25l-1.741 4.996h-3.07l6.866-18.483h3.19l6.868 18.483h-3.124l-1.74-4.996zm-6.5-2.305h5.748l-2.833-8.108h-.08l-2.834 8.108zm26.193.564c0 4.188-2.307 6.878-5.787 6.878-1.8.092-3.494-.824-4.363-2.357h-.066v6.675h-2.847V34.377H77.8v2.242h.052c.908-1.524 2.604-2.44 4.415-2.383 3.52 0 5.84 2.704 5.84 6.88zm-2.926 0c0-2.728-1.45-4.522-3.664-4.522-2.175 0-3.638 1.832-3.638 4.522 0 2.715 1.463 4.534 3.638 4.534 2.213 0 3.664-1.78 3.664-4.534zm18.189 0c0 4.188-2.307 6.878-5.788 6.878-1.799.092-3.493-.824-4.363-2.357h-.065v6.675h-2.847V34.377h2.755v2.242h.053c.908-1.524 2.604-2.44 4.415-2.383 3.52 0 5.84 2.704 5.84 6.88zm-2.926 0c0-2.728-1.451-4.522-3.665-4.522-2.175 0-3.637 1.832-3.637 4.522 0 2.715 1.462 4.534 3.637 4.534 2.214 0 3.665-1.78 3.665-4.534zm13.013 1.587c.21 1.833 2.043 3.037 4.547 3.037 2.4 0 4.125-1.204 4.125-2.856 0-1.435-1.04-2.294-3.506-2.883l-2.465-.577c-3.492-.82-5.114-2.407-5.114-4.983 0-3.189 2.86-5.38 6.921-5.38 4.02 0 6.774 2.191 6.867 5.38h-2.873c-.172-1.844-1.741-2.958-4.034-2.958-2.293 0-3.862 1.127-3.862 2.766 0 1.307 1.002 2.076 3.453 2.665l2.096.5c3.902.897 5.524 2.42 5.524 5.124 0 3.458-2.835 5.623-7.343 5.623-4.218 0-7.066-2.115-7.25-5.458h2.914zm17.822-11.515v3.19h2.637v2.19h-2.637v7.43c0 1.153.528 1.691 1.687 1.691.313-.005.626-.027.936-.064v2.177a8.038 8.038 0 0 1-1.58.128c-2.808 0-3.903-1.024-3.903-3.638V36.57h-2.016v-2.19h2.016v-3.19h2.86zm4.164 9.928c0-4.24 2.57-6.904 6.577-6.904 4.02 0 6.578 2.664 6.578 6.904 0 4.252-2.544 6.905-6.578 6.905-4.033 0-6.577-2.653-6.577-6.905zm10.255 0c0-2.909-1.372-4.625-3.678-4.625-2.307 0-3.677 1.73-3.677 4.625 0 2.92 1.37 4.624 3.677 4.624 2.306 0 3.678-1.704 3.678-4.624zm5.247-6.739h2.715v2.294h.065c.379-1.477 1.771-2.493 3.336-2.435.328 0 .655.034.975.103v2.588a4.087 4.087 0 0 0-1.279-.167 2.91 2.91 0 0 0-2.217.887 2.738 2.738 0 0 0-.749 2.213v7.993h-2.846V34.378zm20.215 9.518c-.383 2.447-2.835 4.126-5.971 4.126-4.034 0-6.538-2.627-6.538-6.841 0-4.227 2.517-6.968 6.418-6.968 3.837 0 6.25 2.56 6.25 6.647v.948h-9.795v.167a3.45 3.45 0 0 0 .979 2.726 3.666 3.666 0 0 0 2.752 1.09c1.381.127 2.683-.644 3.202-1.895h2.703zm-9.622-4.022h6.932a3.19 3.19 0 0 0-.931-2.432 3.384 3.384 0 0 0-2.47-.988 3.564 3.564 0 0 0-2.499.995 3.364 3.364 0 0 0-1.032 2.425zM58.537 17.205c0-2.905 1.534-4.7 4.004-4.7 1.845-.092 3.453 1.258 3.696 3.105h-1.375a2.29 2.29 0 0 0-2.321-1.807c-1.596 0-2.594 1.31-2.594 3.402 0 2.087.998 3.396 2.6 3.396a2.229 2.229 0 0 0 2.315-1.65h1.375c-.278 1.803-1.886 3.087-3.69 2.948-2.47 0-4.01-1.794-4.01-4.694zm9.21 1.093a3.211 3.211 0 0 1 1.487-3.026 3.156 3.156 0 0 1 3.351 0 3.211 3.211 0 0 1 1.488 3.026 3.212 3.212 0 0 1-1.486 3.032 3.156 3.156 0 0 1-3.354 0 3.212 3.212 0 0 1-1.486-3.032zm4.964 0c0-1.465-.653-2.322-1.799-2.322-1.15 0-1.798.857-1.798 2.322 0 1.478.647 2.328 1.798 2.328 1.146 0 1.8-.856 1.8-2.328zm3.138-3.377h1.274v1.074h.1a2.006 2.006 0 0 1 2-1.205 2.172 2.172 0 0 1 1.761.695 2.21 2.21 0 0 1 .561 1.82v4.377h-1.323V17.64c0-1.087-.469-1.627-1.448-1.627a1.532 1.532 0 0 0-1.191.486c-.308.33-.458.778-.41 1.228v3.955h-1.324v-6.761zm10.196-.13c1.508 0 2.494.707 2.624 1.899h-1.27c-.122-.497-.604-.813-1.354-.813-.74 0-1.3.353-1.3.881 0 .404.338.658 1.065.826l1.115.26c1.275.299 1.873.852 1.873 1.845 0 1.273-1.176 2.124-2.778 2.124-1.596 0-2.636-.727-2.754-1.925h1.325a1.36 1.36 0 0 0 1.46.844c.824 0 1.41-.373 1.41-.913 0-.403-.314-.664-.986-.826l-1.17-.273c-1.275-.304-1.866-.881-1.866-1.887 0-1.199 1.09-2.043 2.606-2.043zm4.425-1l1.546-2.137h1.552l-1.731 2.136H90.47zm.136 1.13h1.318v6.761h-1.318v-6.761zm3.38 7.438h1.354c.112.49.672.807 1.565.807 1.103 0 1.756-.528 1.756-1.422v-1.297h-.1a2.251 2.251 0 0 1-2.07 1.135c-1.711 0-2.77-1.334-2.77-3.358 0-2.062 1.07-3.416 2.784-3.416a2.32 2.32 0 0 1 2.106 1.193h.105v-1.08h1.268v6.817c0 1.546-1.201 2.527-3.098 2.527-1.676 0-2.76-.757-2.9-1.906zm4.7-4.142c0-1.347-.692-2.21-1.819-2.21-1.139 0-1.779.863-1.779 2.21 0 1.348.64 2.21 1.78 2.21 1.134 0 1.817-.856 1.817-2.21zm9.063 3.465h-1.276v-1.074h-.105a2.01 2.01 0 0 1-2.026 1.205 2.17 2.17 0 0 1-1.749-.695 2.208 2.208 0 0 1-.562-1.808v-4.39h1.326v4.043c0 1.092.436 1.614 1.41 1.614.457.044.909-.123 1.23-.453.322-.33.478-.789.426-1.249v-3.954h1.326v6.761zm7.78-1.826a2.723 2.723 0 0 1-2.906 1.957 3.035 3.035 0 0 1-2.35-1.022 3.088 3.088 0 0 1-.748-2.468c-.12-.896.153-1.8.746-2.478a3.083 3.083 0 0 1 2.346-1.055c1.867 0 2.992 1.285 2.992 3.409v.465h-4.736v.075c-.042.502.128.998.468 1.367s.819.576 1.318.57a1.604 1.604 0 0 0 1.596-.82h1.274zm-4.656-2.179h3.388a1.64 1.64 0 0 0-.44-1.244 1.612 1.612 0 0 0-1.211-.507 1.708 1.708 0 0 0-1.235.506c-.327.33-.508.78-.502 1.245zm6.575-5.396h1.324v9.401h-1.324v-9.4zm3.164 6.017a3.211 3.211 0 0 1 1.488-3.026 3.156 3.156 0 0 1 3.35 0 3.211 3.211 0 0 1 1.488 3.026 3.212 3.212 0 0 1-1.486 3.032 3.156 3.156 0 0 1-3.354 0 3.212 3.212 0 0 1-1.486-3.032zm4.965 0c0-1.465-.654-2.322-1.8-2.322-1.15 0-1.798.857-1.798 2.322 0 1.478.648 2.328 1.798 2.328 1.146 0 1.8-.856 1.8-2.328zm12.448 1.558a2.723 2.723 0 0 1-2.906 1.957 3.035 3.035 0 0 1-2.35-1.022 3.088 3.088 0 0 1-.748-2.468c-.12-.896.153-1.8.746-2.478a3.083 3.083 0 0 1 2.346-1.055c1.867 0 2.992 1.285 2.992 3.409v.465h-4.736v.075c-.042.502.128.998.468 1.367s.819.576 1.318.57a1.604 1.604 0 0 0 1.596-.82h1.274zm-4.656-2.179h3.388a1.64 1.64 0 0 0-.44-1.244 1.612 1.612 0 0 0-1.211-.507 1.708 1.708 0 0 0-1.235.506c-.327.33-.508.78-.502 1.245zm6.514-2.756h1.274v1.074h.1a2.006 2.006 0 0 1 2-1.205 2.172 2.172 0 0 1 1.761.695 2.21 2.21 0 0 1 .561 1.82v4.377h-1.323V17.64c0-1.087-.469-1.627-1.448-1.627a1.532 1.532 0 0 0-1.191.486c-.308.33-.458.778-.41 1.228v3.955h-1.324v-6.761zm17.054 4.935a2.723 2.723 0 0 1-2.906 1.957 3.035 3.035 0 0 1-2.35-1.022 3.088 3.088 0 0 1-.749-2.468c-.119-.896.154-1.8.747-2.478a3.083 3.083 0 0 1 2.346-1.055c1.866 0 2.992 1.285 2.992 3.409v.465h-4.736v.075c-.042.502.128.998.468 1.367s.819.576 1.318.57a1.604 1.604 0 0 0 1.596-.82h1.274zm-4.656-2.179h3.388a1.64 1.64 0 0 0-.441-1.244 1.612 1.612 0 0 0-1.21-.507 1.708 1.708 0 0 0-1.235.506c-.327.33-.508.78-.502 1.245zm6.575-5.396h1.324v9.401h-1.324v-9.4zM39.794 29.71c.032-2.536 1.34-4.878 3.466-6.206a7.42 7.42 0 0 0-5.87-3.226c-2.47-.263-4.865 1.502-6.123 1.502-1.283 0-3.221-1.475-5.308-1.432-2.746.09-5.243 1.638-6.58 4.078-2.844 5.005-.722 12.36 2.003 16.406 1.363 1.982 2.957 4.194 5.042 4.116 2.04-.086 2.802-1.322 5.265-1.322 2.44 0 3.154 1.322 5.282 1.272 2.189-.036 3.568-1.99 4.884-3.99a16.496 16.496 0 0 0 2.233-4.622c-2.6-1.118-4.29-3.707-4.294-6.576zm-4.018-12.092a7.362 7.362 0 0 0 1.64-5.218 7.254 7.254 0 0 0-4.718 2.48 7.001 7.001 0 0 0-1.683 5.025 5.992 5.992 0 0 0 4.761-2.287z"/>
    </g>
</svg>
