<?xml version="1.0" encoding="utf-8"?>
<!-- Generator: Adobe Illustrator 16.0.0, SVG Export Plug-In . SVG Version: 6.00 Build 0)  -->
<!DOCTYPE svg PUBLIC "-//W3C//DTD SVG 1.1//EN" "http://www.w3.org/Graphics/SVG/1.1/DTD/svg11.dtd">
<svg version="1.1" id="Layer_1" xmlns="http://www.w3.org/2000/svg" xmlns:xlink="http://www.w3.org/1999/xlink" x="0px" y="0px"
	 width="548.704px" height="138.931px" viewBox="0 0 548.704 138.931" enable-background="new 0 0 548.704 138.931"
	 xml:space="preserve">
<g>
	<path fill="#FFFFFF" d="M12.488,2.272c0.148-1.193,0.391-1.805,1.738-1.958h21.246h0.449c1.043,0,1.643,0.746,1.643,1.794v0.299
		L24.771,106.25c-0.146,1.342-1.34,2.236-2.686,2.236H2.24c-1.193,0-2.24-0.746-2.24-1.939"/>
	<path fill="#FFFFFF" d="M117.521,46.702c0,3.282-0.449,6.419-0.748,9.548l-6.266,50c-0.148,1.342-1.195,2.236-2.537,2.236H89.76
		c-1.34,0-2.238-0.746-2.238-1.939v-0.297l5.973-48.505c0.297-2.089,0.596-4.182,0.596-6.117v-0.153c0-2.387-0.449-4.179-1.494-5.37
		c-1.49-1.79-3.881-2.538-7.463-2.538c-7.164,0-15.369,1.939-15.369,1.939l-7.457,60.744c-0.156,1.342-1.199,2.236-2.691,2.236
		H41.41c-1.342,0-2.244-0.746-2.244-1.939v-0.297l8.063-65.069c0.746-5.672,4.627-7.464,13.58-9.552
		c7.756-1.79,19.703-3.434,29.105-3.434c10.742,0,18.65,1.493,23.281,5.967c2.682,2.84,4.326,6.866,4.326,12.39V46.702z"/>
	<path fill="#FFFFFF" d="M292.979,110.427c-2.838,23.133-17.311,28.504-34.774,28.504c-10.299,0-11.643-0.447-14.326-0.749
		c-1.346-0.146-2.688-0.297-2.688-2.385v-0.746l1.043-8.653c0.299-2.538,1.342-3.353,3.584-3.353
		c2.088-0.152,4.924-0.152,8.057-0.299c7.762-0.449,12.377-0.515,14.475-11.722L281.635,1.998c0.148-1.193,0.607-1.775,1.949-1.924
		l20.881,0.045h0.297c1.195,0,1.793,0.744,1.793,1.792"/>
	<path fill="#FFFFFF" d="M254.732,87.242c-4.924,13.43-15.076,22.537-38.951,22.537c-13.434,0-21.793-2.835-26.865-7.761
		c-5.225-5.225-6.867-12.538-6.867-21.19c0-9.553,1.941-23.73,5.52-32.388c5.225-12.533,15.529-20.893,38.361-20.893
		c13.58,0,22.084,2.986,27.158,8.058c5.074,5.078,6.564,12.088,6.564,20.746C259.652,65.753,258.012,78.737,254.732,87.242z
		 M233.84,46.201c-1.945-2.089-4.926-3.132-9.852-3.132c-10.895,0-14.176,4.926-16.121,15.519
		c-1.344,7.315-2.533,15.522-2.533,22.981c0,4.629,0.598,7.911,2.834,10.002c1.936,1.79,4.926,2.689,9.551,2.689
		c11.195,0,14.324-5.225,16.268-16.416c1.342-7.169,2.391-14.778,2.391-21.938C236.377,51.423,235.773,48.294,233.84,46.201z"/>
	<path fill="#FFFFFF" d="M383.161,87.242c-4.926,13.432-15.072,22.537-38.949,22.537c-13.436,0-21.791-2.835-26.869-7.763
		c-5.221-5.221-6.859-12.533-6.859-21.188c0-9.553,1.938-23.729,5.52-32.386c5.227-12.533,15.523-20.895,38.361-20.895
		c13.574,0,22.084,2.988,27.156,8.058c5.076,5.076,6.566,12.091,6.566,20.743C388.086,65.753,386.446,78.739,383.161,87.242z
		 M362.268,46.203c-1.939-2.089-4.924-3.134-9.848-3.134c-10.895,0-14.18,4.923-16.117,15.521
		c-1.35,7.315-2.539,15.523-2.539,22.979c0,4.629,0.596,7.914,2.836,10.002c1.941,1.794,4.926,2.687,9.551,2.687
		c11.193,0,14.33-5.225,16.27-16.415c1.342-7.165,2.385-14.776,2.385-21.939C364.805,51.426,364.211,48.296,362.268,46.203z"/>
	<path fill="#FFFFFF" d="M470.786,84.708c-5.076,16.863-15.375,25.071-39.254,25.071c-11.646,0-21.789-1.644-27.459-3.581
		c-5.82-1.94-7.313-4.477-7.313-8.51c0-1.939,0.299-4.177,0.746-7.012l10.525-87.094c0.148-2.091,1.043-3.282,3.135-3.583
		l17.313,0.047h0.744c1.346,0,2.238,0.601,2.238,2.093v0.445l-2.467,18.994l-1.088,8.732c0,0,8.996-2.764,18.85-2.764
		c9.846,0,17.008,1.942,21.637,6.419c4.479,4.325,6.564,11.193,6.564,21.487C474.958,64.855,473.469,75.604,470.786,84.708z
		 M449.741,46.354c-1.938-2.54-5.078-3.138-10-3.138c-5.973,0-13.729,1.944-13.729,1.944l-5.824,47.906
		c0,0,5.076,1.191,11.344,1.191c10.748,0,15.225-2.985,18.057-18.803c1.197-6.42,2.094-13.286,2.094-19.851
		C451.682,51.279,451.083,48.296,449.741,46.354z"/>
	<path fill="#FFFFFF" d="M545.715,43.663c-0.297,1.047-1.193,1.49-2.236,1.49c-0.152,0-0.299-0.148-0.6-0.148
		c-1.492-0.148-9.998-2.089-17.904-2.089c-3.736,0-8.213,0.448-11.049,2.687c-1.938,1.642-2.834,3.881-2.834,6.417v0.152
		c0.152,6.264,6.867,6.563,13.727,7.909c5.977,0.895,11.943,2.385,15.822,6.266c2.984,2.835,4.777,7.164,4.777,13.732
		c0,7.309-2.238,14.772-7.463,20.294c-6.564,6.866-17.012,9.406-28.652,9.406c-12.834,0-24.479-3.136-27.014-4.332
		c-0.445-0.299-1.348-0.445-1.348-1.792c0-0.447,0-0.744,0.152-1.342l2.986-9.553c0.445-1.338,1.043-1.787,1.941-1.787
		c0.297,0,0.449,0,0.744,0.146c1.941,0.449,12.238,3.435,21.488,3.435c4.18,0,8.059-0.746,10.598-2.985
		c2.242-1.792,3.135-4.327,3.135-6.865c0-3.135-1.043-4.775-3.135-5.818c-2.09-1.046-4.926-1.495-8.355-2.096
		c-5.523-1.041-13.131-2.084-18.057-6.863c-2.838-2.984-4.627-7.011-4.627-13.281c0-6.566,1.789-13.578,5.965-18.65
		c7.465-8.959,20.148-10.299,29.699-10.299c11.939,0,21.045,2.536,23.883,3.431c1.045,0.3,1.344,1.046,1.344,1.942v0.744
		L545.715,43.663z"/>
	<g>
		<path fill="#FFFFFF" d="M125.17,106.848l7.908-56.483l1.939-16.416l1.197-10.147c1.938-15.82,11.043-23.731,28.504-23.731
			c10.746,0,17.463,1.942,19.699,2.538c1.043,0.299,1.342,1.046,1.342,1.938c0,0.152,0,0.451-0.146,0.748l-2.836,10.148
			c-0.299,1.344-0.748,1.939-1.945,1.939h-0.592c-1.797-0.299-6.422-1.043-10.447-1.043c-7.016,0-9.707,1.787-10.594,8.058
			l-1.195,9.552h18.949c1.348,0,2.09,0.747,2.09,1.94v0.297l-1.49,11.942c-0.15,1.34-1.193,2.236-2.535,2.236h-18.957l-7.814,54.748
			"/>
		<path fill="#FFFFFF" d="M125.734,102.688l-0.436,3.562l-0.129,0.537c0,1.191,1.027,1.699,2.219,1.699h17.658
			c1.342,0,2.723-0.445,3.012-2.183l0.486-3.615H125.734z"/>
	</g>
</g>
</svg>
